<?xml version="1.0" encoding="UTF-8"?>
<svg version="1.1" xmlns="http://www.w3.org/2000/svg" width="256" height="256">
<path d="M0 0 C22.03852652 18.81159856 36.46579334 41.06373377 44.3515625 68.91015625 C44.69316406 70.08835937 45.03476563 71.2665625 45.38671875 72.48046875 C52.92056498 104.36791093 46.53869956 140.38566089 29.7109375 168.21484375 C19.22380228 184.89578124 5.20171214 199.62660904 -11.6484375 209.91015625 C-12.7209375 210.59335938 -13.7934375 211.2765625 -14.8984375 211.98046875 C-42.75922794 228.94201478 -78.25061189 233.92648545 -110.03027344 226.74707031 C-117.81941729 224.77736357 -125.2980262 222.14033195 -132.6484375 218.91015625 C-133.30263672 218.62688477 -133.95683594 218.34361328 -134.63085938 218.05175781 C-164.72593234 204.76588414 -188.43262339 179.18859339 -200.51953125 148.71386719 C-202.47890077 143.51521742 -204.1350825 138.25415274 -205.6484375 132.91015625 C-205.99003906 131.73195312 -206.33164063 130.55375 -206.68359375 129.33984375 C-214.21743998 97.45240157 -207.83557456 61.43465161 -191.0078125 33.60546875 C-172.71931393 4.51560818 -145.47270495 -14.79440926 -112.6484375 -24.08984375 C-111.47023438 -24.43144531 -110.29203125 -24.77304687 -109.078125 -25.125 C-71.91216204 -33.90596927 -29.43835184 -24.14652242 0 0 Z " fill="#0E2A47" transform="translate(208.6484375,27.08984375)"/>
<path d="M0 0 C2.65782618 2.65782618 2.25337738 3.89826223 2.26069641 7.6111908 C2.26778122 8.80441452 2.27486603 9.99763824 2.28216553 11.22702026 C2.27968811 12.54292145 2.27721069 13.85882263 2.2746582 15.21459961 C2.27900354 16.60902683 2.28418609 18.00345167 2.29014587 19.39787292 C2.30356663 23.19125016 2.30411113 26.98452794 2.30158257 30.7779243 C2.3005149 33.94157295 2.30539102 37.1052013 2.310188 40.26884562 C2.32129391 47.7309222 2.32171457 55.19294844 2.31567383 62.6550293 C2.30963253 70.35993958 2.32194646 78.06466732 2.3432439 85.76954645 C2.36084213 92.37850802 2.36686406 98.9874114 2.36360615 105.59639555 C2.36179023 109.54635392 2.36445998 113.49618209 2.37832069 117.44611931 C2.39086558 121.16026235 2.38898695 124.87412025 2.37590981 128.58825874 C2.37240373 130.60466372 2.38374664 132.62107727 2.39547729 134.63745117 C2.38846298 135.83349472 2.38144867 137.02953827 2.3742218 138.26182556 C2.37438954 139.30361938 2.37455729 140.34541319 2.37473011 141.41877651 C2 144 2 144 0.69926739 145.83910465 C-2.11317721 147.76049376 -4.71406603 147.29872127 -8 147 C-10.66354966 144.33645034 -10.25553024 143.07305258 -10.26742554 139.35084534 C-10.27595551 138.14920746 -10.28448547 136.94756958 -10.29327393 135.70951843 C-10.29257484 134.37088 -10.29165175 133.03224166 -10.29052734 131.69360352 C-10.29650909 130.28932333 -10.30331381 128.88504645 -10.31088257 127.48077393 C-10.32858534 123.66054733 -10.33323972 119.84041026 -10.33451414 116.02014661 C-10.33641058 112.83412853 -10.34376512 109.64813144 -10.35085833 106.46212143 C-10.36715593 98.94731172 -10.37202601 91.43254995 -10.37060547 83.91772461 C-10.36940347 76.1582379 -10.39051362 68.39902909 -10.4220928 60.63961273 C-10.44821761 53.98394093 -10.45897438 47.32836011 -10.45769465 40.6726374 C-10.45718392 36.69468454 -10.46292797 32.71697855 -10.48405075 28.73907661 C-10.50336976 24.99860956 -10.50360171 21.2586265 -10.48901749 17.5181427 C-10.48692038 16.14388258 -10.49168377 14.76959268 -10.5037384 13.39538383 C-10.51910687 11.5223625 -10.50752192 9.64917726 -10.49447632 7.77613831 C-10.49611062 6.20238607 -10.49611062 6.20238607 -10.49777794 4.59684086 C-10 2 -10 2 -8.16440773 0.12727261 C-5.11011168 -1.46347401 -3.24974343 -0.91840575 0 0 Z " fill="#2AC389" transform="translate(132,54)"/>
<path d="M0 0 C3.0678536 2.86855673 3.94068594 4.56132401 4.50793457 8.7565918 C4.53157597 10.23728221 4.53336196 11.71842373 4.51757812 13.19921875 C4.52809204 14.41721664 4.52809204 14.41721664 4.53881836 15.65982056 C4.55638138 18.3360646 4.54478201 21.01124575 4.53125 23.6875 C4.53394541 25.55167849 4.53782824 27.41585561 4.54284668 29.2800293 C4.54873942 33.18389289 4.54018602 37.08738999 4.52148438 40.99121094 C4.49869492 45.99166537 4.51181921 50.99126102 4.53577423 55.99168396 C4.55023828 59.84019423 4.54562344 63.68850138 4.53526306 67.53701782 C4.53259745 69.38058575 4.53585971 71.22417221 4.54518127 73.06771851 C4.55535697 75.64590196 4.53983245 78.22270076 4.51757812 80.80078125 C4.52567505 81.56041168 4.53377197 82.32004211 4.54211426 83.10269165 C4.48399502 86.74277203 4.08815264 88.85724662 2.15905762 91.98120117 C0 94 0 94 -3.0625 94.5 C-6 94 -6 94 -7.65933228 92.99194336 C-9.80851382 89.79872268 -9.4161672 86.34933396 -9.38818359 82.62890625 C-9.39344055 81.77497284 -9.39869751 80.92103943 -9.40411377 80.04122925 C-9.4173319 77.21480083 -9.40856932 74.38893428 -9.3984375 71.5625 C-9.40045771 69.60099174 -9.40336871 67.6394842 -9.40713501 65.67797852 C-9.41156082 61.56551976 -9.40511901 57.45325638 -9.39111328 53.34082031 C-9.37402129 48.06448313 -9.3838611 42.78860371 -9.40183067 37.51228333 C-9.41266155 33.46143127 -9.40922536 29.41068807 -9.4014473 25.35983276 C-9.39944336 23.41413316 -9.40191131 21.46842373 -9.40888596 19.5227356 C-9.41648897 16.8052546 -9.40491252 14.0885191 -9.38818359 11.37109375 C-9.39425629 10.56372772 -9.40032898 9.75636169 -9.40658569 8.92453003 C-9.34473301 3.51219897 -9.34473301 3.51219897 -7.65933228 1.00805664 C-4.94909761 -0.63843098 -3.0873318 -0.50405417 0 0 Z " fill="#29BE87" transform="translate(165,80)"/>
<path d="M0 0 C1.65834045 1.00415039 1.65834045 1.00415039 3 3 C3.30140047 5.86208855 3.42001939 8.50749017 3.40405273 11.37109375 C3.41091599 12.22502716 3.41777924 13.07896057 3.42485046 13.95877075 C3.44317188 16.78518232 3.43927376 19.61104172 3.43359375 22.4375 C3.43815268 24.39900901 3.44345738 26.36051642 3.44947815 28.32202148 C3.45841952 32.43447353 3.45597409 36.54673149 3.44604492 40.65917969 C3.43454832 45.93561081 3.45477216 51.21137341 3.48396206 56.48771667 C3.50228526 60.53857698 3.50203946 64.5892759 3.49632454 68.64016724 C3.49617088 70.58587584 3.502252 72.53159508 3.51461601 74.4772644 C3.52945281 77.19490842 3.51890374 79.91130205 3.50170898 82.62890625 C3.51621094 83.83995529 3.51621094 83.83995529 3.53100586 85.07546997 C3.45877209 90.51264215 3.45877209 90.51264215 1.12489319 92.99194336 C-1.5847411 94.27740319 -3.04034663 94.59193067 -6 94 C-9.05963187 91.10146965 -9.94458057 89.41474839 -10.50793457 85.19871521 C-10.53158114 83.69703128 -10.53335883 82.19490242 -10.51757812 80.69311523 C-10.5245874 79.86975677 -10.53159668 79.04639832 -10.53881836 78.1980896 C-10.55638123 75.48457827 -10.54478308 72.77211512 -10.53125 70.05859375 C-10.53394515 68.16959941 -10.53782777 66.28060642 -10.54284668 64.39161682 C-10.54873918 60.43648037 -10.54018579 56.48170568 -10.52148438 52.52661133 C-10.49867933 47.45656052 -10.51182926 42.38735595 -10.53577423 37.31733608 C-10.55022558 33.41825478 -10.54562954 29.51937428 -10.53526306 25.62028694 C-10.53259475 23.75077273 -10.53586921 21.88124029 -10.54518127 20.01174736 C-10.55533776 17.39983659 -10.53985996 14.78929869 -10.51757812 12.17749023 C-10.52567505 11.40491379 -10.53377197 10.63233734 -10.54211426 9.83634949 C-10.48687261 6.34201908 -10.26661345 4.35970762 -8.15905762 1.51625061 C-5.24512021 -0.53013265 -3.48558695 -0.51912997 0 0 Z " fill="#29BE87" transform="translate(97,80)"/>
<path d="M0 0 C3.02440913 0.96523696 4.02722243 1.49616041 5.9375 3.9375 C6.33190918 5.97299194 6.33190918 5.97299194 6.35742188 8.32958984 C6.37333374 9.21415863 6.38924561 10.09872742 6.40563965 11.01010132 C6.40584106 11.96325226 6.40604248 12.9164032 6.40625 13.8984375 C6.41386353 14.88115631 6.42147705 15.86387512 6.42932129 16.87637329 C6.44012984 18.9559678 6.44297234 21.03561663 6.43847656 23.11523438 C6.43750568 26.29389357 6.47908899 29.47012789 6.5234375 32.6484375 C6.52864556 34.6692658 6.53133268 36.69010249 6.53125 38.7109375 C6.5558429 40.13459122 6.5558429 40.13459122 6.58093262 41.58700562 C6.53283617 46.19161537 6.42178347 48.28723718 3.59960938 52.07666016 C0.9375 53.9375 0.9375 53.9375 -2.25 53.9375 C-5.0625 52.9375 -5.0625 52.9375 -7.0625 49.9375 C-7.32992554 47.85731506 -7.32992554 47.85731506 -7.35302734 45.43774414 C-7.36578705 44.52992691 -7.37854675 43.62210968 -7.39169312 42.68678284 C-7.39391876 41.70862106 -7.39614441 40.73045929 -7.3984375 39.72265625 C-7.4050943 38.71536972 -7.4117511 37.70808319 -7.41860962 36.67027283 C-7.42873725 34.53939644 -7.43342661 32.40848832 -7.43310547 30.27758789 C-7.43747867 27.015908 -7.47379789 23.75558103 -7.51171875 20.49414062 C-7.51758682 18.4244838 -7.52155628 16.35482054 -7.5234375 14.28515625 C-7.53780853 13.30901871 -7.55217957 12.33288116 -7.56698608 11.3271637 C-7.52154469 4.5997174 -7.52154469 4.5997174 -5.22509766 1.28686523 C-3.0625 -0.0625 -3.0625 -0.0625 0 0 Z " fill="#2ABE87" transform="translate(197.0625,101.0625)"/>
<path d="M0 0 C2.13506983 1.59471531 2.90652121 2.4785916 3.38095093 5.12487793 C3.38333771 5.94411743 3.38572449 6.76335693 3.38818359 7.60742188 C3.40236832 9.00402039 3.40236832 9.00402039 3.4168396 10.42883301 C3.41076691 11.43200562 3.40469421 12.43517822 3.3984375 13.46875 C3.40274277 15.01653137 3.40274277 15.01653137 3.40713501 16.59558105 C3.40917701 18.77775623 3.40363771 20.95994965 3.39111328 23.14208984 C3.37506205 26.487069 3.39095791 29.83083979 3.41015625 33.17578125 C3.40817384 35.29427351 3.40433022 37.41276501 3.3984375 39.53125 C3.40754654 41.03600891 3.40754654 41.03600891 3.4168396 42.57116699 C3.40738312 43.50223267 3.39792664 44.43329834 3.38818359 45.39257812 C3.38579681 46.21181763 3.38341003 47.03105713 3.38095093 47.87512207 C2.90406312 50.53511922 2.16556869 51.41606347 0 53 C-3.5 53.4375 -3.5 53.4375 -7 53 C-9.67142444 50.24772397 -10.37775469 48.26759012 -10.40405273 44.47851562 C-10.41673691 43.59079468 -10.42942108 42.70307373 -10.44248962 41.78845215 C-10.43955399 40.83732544 -10.43661835 39.88619873 -10.43359375 38.90625 C-10.4388356 37.92257446 -10.44407745 36.93889893 -10.44947815 35.92541504 C-10.45589591 33.84758447 -10.45456454 31.76971755 -10.44604492 29.69189453 C-10.43753048 26.51138744 -10.46630755 23.33267362 -10.49804688 20.15234375 C-10.49965886 18.13281304 -10.4990814 16.11327915 -10.49609375 14.09375 C-10.50732773 13.14262329 -10.51856171 12.19149658 -10.53013611 11.21154785 C-10.4608203 4.65218151 -10.4608203 4.65218151 -8.16040039 1.39648438 C-5.23338808 -0.4955385 -3.41807246 -0.50907462 0 0 Z " fill="#2ABF87" transform="translate(63,101)"/>
</svg>
